<svg xmlns="http://www.w3.org/2000/svg" viewBox="0 0 24 24" fill="currentColor" class="w-6 h-6">
  <path d="M10.5 1.875h3v4.5h-3v-4.5ZM10.5 9.375h3V21h-3V9.375Z" />
  <path fill-rule="evenodd" d="M3.75 9.375C3.75 8.339 4.59 7.5 5.625 7.5h12.75c1.035 0 1.875.84 1.875 1.875v11.25c0 1.035-.84 1.875-1.875 1.875H5.625c-1.035 0-1.875-.84-1.875-1.875V9.375ZM5.625 8.25a.75.75 0 0 0-.75.75v11.25c0 .414.336.75.75.75h12.75a.75.75 0 0 0 .75-.75V9.375a.75.75 0 0 0-.75-.75H5.625Z" clip-rule="evenodd" />
</svg>