<?xml version="1.0" encoding="UTF-8"?>
<!DOCTYPE svg PUBLIC "-//W3C//DTD SVG 1.1//EN" "http://www.w3.org/Graphics/SVG/1.1/DTD/svg11.dtd">
<svg xmlns="http://www.w3.org/2000/svg" version="1.1" width="683px" height="1024px" style="shape-rendering:geometricPrecision; text-rendering:geometricPrecision; image-rendering:optimizeQuality; fill-rule:evenodd; clip-rule:evenodd" xmlns:xlink="http://www.w3.org/1999/xlink">
<g><path style="opacity:0.072" fill="#fefefd" d="M 325.5,262.5 C 424.948,260.598 500.115,301.932 551,386.5C 568.544,422.042 577.378,459.708 577.5,499.5C 578.012,522.841 575.512,545.841 570,568.5C 560.092,596.65 546.759,622.983 530,647.5C 511.538,669.312 490.705,688.145 467.5,704C 459.248,707.931 451.248,712.265 443.5,717C 405.344,735.307 365.011,742.974 322.5,740C 289.106,735.809 257.44,726.309 227.5,711.5C 161.126,672.948 120.626,615.948 106,540.5C 104.014,513.499 104.014,486.499 106,459.5C 110.308,434.267 118.308,410.267 130,387.5C 173.375,311.994 238.541,270.327 325.5,262.5 Z"/></g>
<g><path style="opacity:0.996" fill="#f3f2ed" d="M 318.5,265.5 C 420.15,260.726 496.984,301.393 549,387.5C 574.668,438.846 582.335,492.846 572,549.5C 570.491,556.536 568.824,563.536 567,570.5C 559.083,590.335 550.083,609.668 540,628.5C 539,629.167 538,629.833 537,630.5C 536.115,633.726 534.781,636.726 533,639.5C 517.475,658.458 500.308,675.625 481.5,691C 479.51,692.751 477.177,693.751 474.5,694C 473.833,695 473.167,696 472.5,697C 459.851,705.33 446.518,712.663 432.5,719C 346.127,751.701 266.127,740.367 192.5,685C 170.893,666.802 152.727,645.968 138,622.5C 130.884,608.348 124.217,594.014 118,579.5C 106.87,546.097 102.87,511.764 106,476.5C 109.709,432.815 124.709,393.815 151,359.5C 193.337,304.776 249.17,273.443 318.5,265.5 Z"/></g>
<g><path style="opacity:0.996" fill="#272621" d="M 345.5,379.5 C 347.948,379.085 349.281,380.085 349.5,382.5C 345.281,392.228 339.614,401.061 332.5,409C 331.167,409.667 329.833,409.667 328.5,409C 327.409,406.936 327.242,404.769 328,402.5C 333.842,394.803 339.676,387.137 345.5,379.5 Z"/></g>
<g><path style="opacity:0.996" fill="#262521" d="M 371.5,377.5 C 372.833,377.5 374.167,377.5 375.5,377.5C 375.662,379.527 375.495,381.527 375,383.5C 368.833,389.667 362.667,395.833 356.5,402C 354.147,403.964 351.647,404.464 349,403.5C 348.333,401.833 348.333,400.167 349,398.5C 356.697,391.634 364.197,384.634 371.5,377.5 Z"/></g>
<g><path style="opacity:0.996" fill="#d3d2cd" d="M 429.5,404.5 C 429.586,405.496 429.252,406.329 428.5,407C 429.646,407.645 430.646,408.478 431.5,409.5C 437.31,410.004 442.644,411.671 447.5,414.5C 440.048,413.813 432.714,412.48 425.5,410.5C 425.352,407.901 426.685,405.901 429.5,404.5 Z"/></g>
<g><path style="opacity:0.996" fill="#252420" d="M 230.5,489.5 C 230.342,486.098 230.676,482.764 231.5,479.5C 234.241,475.526 237.408,471.86 241,468.5C 241.667,465.167 241.667,461.833 241,458.5C 231.778,446.642 232.611,435.475 243.5,425C 248.023,421.405 253.023,418.905 258.5,417.5C 257.83,421.344 255.496,423.844 251.5,425C 239.793,434.056 238.626,444.222 248,455.5C 251.31,466.59 248.31,475.59 239,482.5C 237.909,487.525 238.743,492.191 241.5,496.5C 240.277,497.614 238.944,497.781 237.5,497C 234.254,495.258 231.921,492.758 230.5,489.5 Z"/></g>
<g><path style="opacity:0.996" fill="#93928d" d="M 466.5,454.5 C 463.167,455.167 459.833,455.833 456.5,456.5C 455.957,456.44 455.624,456.107 455.5,455.5C 459.107,454.511 462.774,454.177 466.5,454.5 Z"/></g>
<g><path style="opacity:0.996" fill="#8e8d88" d="M 231.5,479.5 C 230.676,482.764 230.342,486.098 230.5,489.5C 229.362,486.696 229.195,483.696 230,480.5C 230.383,479.944 230.883,479.611 231.5,479.5 Z"/></g>
<g><path style="opacity:0.996" fill="#272621" d="M 399.5,395.5 C 398.957,395.56 398.624,395.893 398.5,396.5C 403.318,397.812 407.985,397.812 412.5,396.5C 418.505,395.998 424.505,395.832 430.5,396C 433.185,399.117 432.852,401.95 429.5,404.5C 426.685,405.901 425.352,407.901 425.5,410.5C 432.714,412.48 440.048,413.813 447.5,414.5C 452.543,414.372 454.376,416.705 453,421.5C 449.739,424.865 446.239,427.865 442.5,430.5C 451.176,435.503 459.51,441.003 467.5,447C 470.42,450.008 470.086,452.508 466.5,454.5C 462.774,454.177 459.107,454.511 455.5,455.5C 455.624,456.107 455.957,456.44 456.5,456.5C 463.431,463.923 469.764,471.756 475.5,480C 475.415,481.107 475.081,482.107 474.5,483C 469.839,483.169 465.172,483.003 460.5,482.5C 460.343,483.873 460.51,485.207 461,486.5C 465.027,491.537 468.694,496.871 472,502.5C 474.135,506.432 475.968,510.432 477.5,514.5C 477.888,516.955 476.888,518.288 474.5,518.5C 471.161,517.499 467.828,516.499 464.5,515.5C 464.167,516.167 463.833,516.833 463.5,517.5C 468.446,528.279 470.946,539.613 471,551.5C 469.612,552.554 468.112,552.72 466.5,552C 463.659,550.414 460.993,548.58 458.5,546.5C 458.52,556.089 458.353,565.756 458,575.5C 456.475,578.087 454.308,578.92 451.5,578C 449.76,575.965 447.926,574.131 446,572.5C 439.79,579.378 432.956,585.545 425.5,591C 427.561,595.068 430.395,598.568 434,601.5C 436.749,613.157 432.582,621.657 421.5,627C 415.922,629.696 410.255,630.03 404.5,628C 401.489,623.101 401.989,618.601 406,614.5C 406.667,613.833 406.667,613.167 406,612.5C 399.339,607.501 393.005,602.168 387,596.5C 383.026,597.078 379.026,597.411 375,597.5C 368.749,597.348 362.583,596.848 356.5,596C 346.912,602.917 337.912,610.584 329.5,619C 326.454,621.174 323.12,621.841 319.5,621C 310.4,617.04 303.234,610.874 298,602.5C 295.112,596.73 296.778,593.063 303,591.5C 307.276,592.282 311.443,593.115 315.5,594C 319.137,588.562 323.137,583.396 327.5,578.5C 324.833,574.833 322.167,571.167 319.5,567.5C 310.409,565.968 306.076,560.634 306.5,551.5C 302.179,551.772 298.012,551.106 294,549.5C 287.481,556.678 279.315,560.178 269.5,560C 264.584,565.202 258.584,568.535 251.5,570C 233.327,573.745 219.494,567.911 210,552.5C 204.73,539.392 203.063,525.725 205,511.5C 206.5,510 208,508.5 209.5,507C 214.044,505.264 218.71,503.93 223.5,503C 235.833,502.333 248.167,502.333 260.5,503C 265.754,503.917 270.754,505.584 275.5,508C 276.758,509.741 277.758,511.574 278.5,513.5C 278.5,514.5 278.5,515.5 278.5,516.5C 280.833,516.5 283.167,516.5 285.5,516.5C 290.186,518.345 294.52,520.845 298.5,524C 302.701,524.922 306.701,524.422 310.5,522.5C 311.631,520.926 311.798,519.259 311,517.5C 309.224,514.059 307.057,510.892 304.5,508C 296.617,502.26 288.284,497.26 279.5,493C 267.616,484.068 262.116,472.235 263,457.5C 263.273,455.671 264.107,454.171 265.5,453C 277.602,448.892 287.435,441.725 295,431.5C 305.089,418.97 312.755,404.97 318,389.5C 319.789,387.771 321.956,387.104 324.5,387.5C 321.9,400.888 316.733,413.221 309,424.5C 308.495,427.514 309.328,428.014 311.5,426C 314.5,425.833 317.5,425.667 320.5,425.5C 327.294,425.833 333.961,426.667 340.5,428C 347.269,416.54 356.936,412.873 369.5,417C 375.344,422.158 377.177,428.658 375,436.5C 372.307,444.483 366.974,448.149 359,447.5C 358.333,446.833 358.333,446.167 359,445.5C 367.599,440.53 370.099,433.53 366.5,424.5C 358.901,420.724 352.735,422.391 348,429.5C 346.656,432.994 344.489,435.661 341.5,437.5C 329.218,431.836 316.552,431.002 303.5,435C 298.892,438.604 294.559,442.604 290.5,447C 286.333,449.833 282.167,452.667 278,455.5C 278.028,461.277 275.861,465.943 271.5,469.5C 276.187,484.385 286.187,491.552 301.5,491C 303.792,489.71 305.792,488.043 307.5,486C 308.784,485.316 309.951,485.483 311,486.5C 311.667,488.167 311.667,489.833 311,491.5C 308.305,493.694 305.472,495.694 302.5,497.5C 307.536,501.371 311.703,506.038 315,511.5C 317.859,521.019 320.026,530.686 321.5,540.5C 333.099,537.04 342.099,530.206 348.5,520C 353.645,519.602 354.812,521.769 352,526.5C 348.841,530.659 345.341,534.492 341.5,538C 332.627,542.457 323.627,546.624 314.5,550.5C 312.458,555.063 313.792,558.229 318.5,560C 335.885,560.09 350.552,553.756 362.5,541C 366.667,539.833 368.167,541.333 367,545.5C 357.012,556.989 344.512,563.989 329.5,566.5C 329.343,567.873 329.51,569.207 330,570.5C 338.274,580.437 348.774,586.604 361.5,589C 371.555,589.291 381.555,589.458 391.5,589.5C 398.239,597.903 406.239,604.903 415.5,610.5C 416.614,611.723 416.781,613.056 416,614.5C 412.017,616.299 409.851,619.299 409.5,623.5C 418.722,623.302 425.222,618.969 429,610.5C 429.667,608.833 429.667,607.167 429,605.5C 424.582,601.753 420.916,597.42 418,592.5C 417.333,590.5 417.333,588.5 418,586.5C 425.853,582.317 432.853,576.984 439,570.5C 440.171,567.65 441.338,564.816 442.5,562C 443.833,561.333 445.167,561.333 446.5,562C 448.083,563.758 449.75,565.258 451.5,566.5C 452.162,564.696 452.495,562.696 452.5,560.5C 451.417,552.171 450.417,543.838 449.5,535.5C 451.402,534.489 453.402,534.322 455.5,535C 457.641,536.308 459.641,537.808 461.5,539.5C 462.652,536.894 462.818,534.227 462,531.5C 459.276,523.548 456.11,515.881 452.5,508.5C 452.112,506.045 453.112,504.712 455.5,504.5C 458.721,505.907 462.055,506.907 465.5,507.5C 460.949,498.738 456.116,490.071 451,481.5C 450.505,479.527 450.338,477.527 450.5,475.5C 454.933,475.818 459.266,475.818 463.5,475.5C 457.183,468.016 450.35,461.016 443,454.5C 442.175,452.299 442.675,450.466 444.5,449C 448.5,448.667 452.5,448.333 456.5,448C 448.6,442.438 440.434,437.272 432,432.5C 431.333,430.833 431.333,429.167 432,427.5C 434.695,425.306 437.528,423.306 440.5,421.5C 432.909,419.455 425.242,417.622 417.5,416C 415.556,413.847 415.056,411.347 416,408.5C 417.353,407.315 418.52,405.981 419.5,404.5C 410.507,404.298 401.507,403.965 392.5,403.5C 390.25,400.767 389.917,397.767 391.5,394.5C 386.039,396.147 380.872,398.48 376,401.5C 372.928,400.553 371.928,398.553 373,395.5C 382.132,389.768 391.799,385.101 402,381.5C 403.622,381.954 404.788,382.954 405.5,384.5C 403.221,388.061 401.221,391.727 399.5,395.5 Z"/></g>
<g><path style="opacity:0.996" fill="#302f2a" d="M 423.5,551.5 C 429.924,552.469 432.591,556.302 431.5,563C 431.419,565.625 430.752,567.959 429.5,570C 427.888,570.72 426.388,570.554 425,569.5C 424.499,563.493 423.999,557.493 423.5,551.5 Z"/></g>
<g><path style="opacity:0.996" fill="#e9e7e2" d="M 288.5,545.5 C 284.703,550.23 279.703,552.563 273.5,552.5C 273.286,550.856 273.62,549.356 274.5,548C 278.654,547.586 282.321,546.086 285.5,543.5C 286.859,542.993 287.859,541.993 288.5,540.5C 289.052,542.003 289.052,543.669 288.5,545.5 Z"/></g>
<g><path style="opacity:0.996" fill="#b1b0ab" d="M 449.5,535.5 C 450.417,543.838 451.417,552.171 452.5,560.5C 452.495,562.696 452.162,564.696 451.5,566.5C 451.102,557.607 450.102,548.773 448.5,540C 448.508,538.293 448.842,536.793 449.5,535.5 Z"/></g>
<g><path style="opacity:0.996" fill="#21201b" d="M 397.5,528.5 C 400.785,528.269 403.285,529.603 405,532.5C 408.225,537.878 410.725,543.544 412.5,549.5C 411.62,552.517 409.786,553.184 407,551.5C 404.413,545.062 401.08,539.062 397,533.5C 396.36,531.735 396.527,530.068 397.5,528.5 Z"/></g>
<g><path style="opacity:0.996" fill="#d9d7d2" d="M 278.5,542.5 C 276.744,541.448 276.077,539.781 276.5,537.5C 277.287,535.896 278.62,535.229 280.5,535.5C 280.662,537.527 280.495,539.527 280,541.5C 279.617,542.056 279.117,542.389 278.5,542.5 Z"/></g>
<g><path style="opacity:0.996" fill="#76746f" d="M 276.5,537.5 C 276.077,539.781 276.744,541.448 278.5,542.5C 277.791,543.404 276.791,543.737 275.5,543.5C 275.205,541.265 275.539,539.265 276.5,537.5 Z"/></g>
<g><path style="opacity:0.996" fill="#bfbeb8" d="M 291.5,527.5 C 292.645,531.311 292.812,535.311 292,539.5C 291.4,541.91 290.234,543.91 288.5,545.5C 289.052,543.669 289.052,542.003 288.5,540.5C 287.859,541.993 286.859,542.993 285.5,543.5C 286.728,539.816 286.728,536.15 285.5,532.5C 286.117,532.611 286.617,532.944 287,533.5C 287.333,535.5 287.667,537.5 288,539.5C 289.333,538.833 290.333,537.833 291,536.5C 291.498,533.518 291.665,530.518 291.5,527.5 Z"/></g>
<g><path style="opacity:0.996" fill="#888782" d="M 298.5,530.5 C 298.231,534.931 298.564,539.265 299.5,543.5C 298.2,541.777 297.533,539.61 297.5,537C 297.504,534.639 297.837,532.473 298.5,530.5 Z"/></g>
<g><path style="opacity:0.996" fill="#f0efe9" d="M 299.5,543.5 C 298.564,539.265 298.231,534.931 298.5,530.5C 303.198,530.29 307.864,530.124 312.5,530C 313.833,534.333 313.833,538.667 312.5,543C 308.179,543.499 303.846,543.666 299.5,543.5 Z"/></g>
<g><path style="opacity:0.996" fill="#f0f0eb" d="M 213.5,541.5 C 214.008,535.81 213.341,530.31 211.5,525C 211.836,523.97 212.503,523.47 213.5,523.5C 222.293,525.968 231.293,526.968 240.5,526.5C 251.523,527.205 262.19,525.872 272.5,522.5C 273.274,535.58 269.941,547.414 262.5,558C 250.703,565.364 238.37,566.364 225.5,561C 218.83,556.163 214.83,549.663 213.5,541.5 Z"/></g>
<g><path style="opacity:0.996" fill="#efeee9" d="M 291.5,527.5 C 291.665,530.518 291.498,533.518 291,536.5C 290.333,537.833 289.333,538.833 288,539.5C 287.667,537.5 287.333,535.5 287,533.5C 286.617,532.944 286.117,532.611 285.5,532.5C 283.824,530.166 281.491,529.166 278.5,529.5C 278.5,527.167 278.5,524.833 278.5,522.5C 284.041,521.376 288.374,523.042 291.5,527.5 Z"/></g>
<g><path style="opacity:0.996" fill="#cccbc6" d="M 213.5,523.5 C 212.503,523.47 211.836,523.97 211.5,525C 213.341,530.31 214.008,535.81 213.5,541.5C 212.883,541.389 212.383,541.056 212,540.5C 210.838,534.555 210.338,528.555 210.5,522.5C 211.791,522.263 212.791,522.596 213.5,523.5 Z"/></g>
<g><path style="opacity:0.996" fill="#252520" d="M 420.5,511.5 C 421.552,511.351 422.552,511.517 423.5,512C 429.314,516.805 433.98,522.472 437.5,529C 436.891,531.803 435.225,532.803 432.5,532C 427.954,527.123 423.787,521.956 420,516.5C 419.36,514.735 419.527,513.068 420.5,511.5 Z"/></g>
<g><path style="opacity:0.996" fill="#888782" d="M 278.5,513.5 C 280.693,514.895 283.026,515.895 285.5,516.5C 283.167,516.5 280.833,516.5 278.5,516.5C 278.5,515.5 278.5,514.5 278.5,513.5 Z"/></g>
<g><path style="opacity:0.996" fill="#e4e3de" d="M 224.5,508.5 C 236.838,508.333 249.171,508.5 261.5,509C 265.993,509.741 269.659,511.741 272.5,515C 271.663,516.587 270.33,517.42 268.5,517.5C 258.835,515.035 249.001,514.035 239,514.5C 232.833,514.667 226.667,514.833 220.5,515C 218.094,515.306 215.927,516.139 214,517.5C 211.226,517.102 210.393,515.769 211.5,513.5C 215.865,511.606 220.199,509.939 224.5,508.5 Z"/></g>
<g><path style="opacity:0.996" fill="#21211c" d="M 386.5,488.5 C 388.655,488.372 390.655,488.872 392.5,490C 397.006,494.173 401.173,498.673 405,503.5C 405.404,510.162 403.071,511.162 398,506.5C 394.749,501.245 390.749,496.578 386,492.5C 385.421,491.072 385.588,489.738 386.5,488.5 Z"/></g>
<g><path style="opacity:0.996" fill="#262520" d="M 416.5,478.5 C 421.059,478.944 425.059,480.777 428.5,484C 430.667,486.167 432.833,488.333 435,490.5C 436.386,496.12 434.552,497.62 429.5,495C 425.8,490.965 421.8,487.298 417.5,484C 416.594,482.301 416.261,480.467 416.5,478.5 Z"/></g>
<g><path style="opacity:0.996" fill="#24221e" d="M 312.5,456.5 C 321.793,456.134 325.126,460.468 322.5,469.5C 320.994,470.747 319.494,470.747 318,469.5C 317.503,467.19 317.337,464.857 317.5,462.5C 313.625,461.874 311.791,463.541 312,467.5C 310.333,470.167 308.667,470.167 307,467.5C 306.333,466.167 306.333,464.833 307,463.5C 308.666,461.004 310.5,458.671 312.5,456.5 Z"/></g>
<g><path style="opacity:0.996" fill="#23221e" d="M 375.5,458.5 C 384.014,460.508 391.514,464.508 398,470.5C 399.167,474.667 397.667,476.167 393.5,475C 388.167,471.667 382.833,468.333 377.5,465C 375.771,463.211 375.104,461.044 375.5,458.5 Z"/></g>
<g><path style="opacity:0.996" fill="#21201c" d="M 402.5,446.5 C 410.803,447.878 418.803,450.378 426.5,454C 427.406,455.699 427.739,457.533 427.5,459.5C 418.638,458.702 410.305,456.202 402.5,452C 401.248,450.172 401.248,448.339 402.5,446.5 Z"/></g>
<g><path style="opacity:0.996" fill="#2d2c28" d="M 390.5,425.5 C 396.842,425.334 403.175,425.5 409.5,426C 412.167,428 412.167,430 409.5,432C 403.5,432.667 397.5,432.667 391.5,432C 389.166,430.158 388.832,427.991 390.5,425.5 Z"/></g>
<g><path style="opacity:0.996" fill="#8e8d88" d="M 399.5,395.5 C 403.634,396.485 407.968,396.818 412.5,396.5C 407.985,397.812 403.318,397.812 398.5,396.5C 398.624,395.893 398.957,395.56 399.5,395.5 Z"/></g>
<g><path style="opacity:0.996" fill="#ecebe6" d="M 331.5,584.5 C 332.552,584.351 333.552,584.517 334.5,585C 338.87,587.847 343.203,590.68 347.5,593.5C 340.049,599.449 333.049,605.949 326.5,613C 324.305,614.373 321.971,614.706 319.5,614C 314.044,610.213 308.877,606.046 304,601.5C 303.517,600.552 303.351,599.552 303.5,598.5C 305.199,598.34 306.866,598.506 308.5,599C 311.4,600.742 314.4,602.242 317.5,603.5C 318.167,603.167 318.833,602.833 319.5,602.5C 322.352,595.664 326.352,589.664 331.5,584.5 Z"/></g>
</svg>
